M48
; DRILL file {KiCad (7.0.0-rc1-163-g06a2e950fd)} date Tue 21 Feb 2023 11:22:42 CET
; FORMAT={-:-/ absolute / metric / decimal}
; #@! TF.CreationDate,2023-02-21T11:22:42+01:00
; #@! TF.GenerationSoftware,Kicad,Pcbnew,(7.0.0-rc1-163-g06a2e950fd)
; #@! TF.FileFunction,Plated,1,2,PTH
FMAT,2
METRIC
; #@! TA.AperFunction,Plated,PTH,ComponentDrill
T1C0.350
; #@! TA.AperFunction,Plated,PTH,ViaDrill
T2C0.400
; #@! TA.AperFunction,Plated,PTH,ComponentDrill
T3C1.000
; #@! TA.AperFunction,Plated,PTH,ComponentDrill
T4C1.524
; #@! TA.AperFunction,Plated,PTH,ComponentDrill
T5C3.048
%
G90
G05
T1
X-41.79Y49.21
X-40.889Y50.112
X-40.889Y48.308
X-39.987Y51.013
X-39.987Y49.21
X-39.987Y47.407
X-39.086Y50.112
X-39.086Y48.308
X-38.184Y49.21
T2
X-76.191Y51.229
X-75.89Y54.63
X-73.688Y48.527
X-63.83Y61.46
X-61.7Y63.59
X-54.488Y35.902
X-53.819Y36.644
X-50.454Y48.599
X-48.94Y55.092
X-43.324Y41.338
X-40.95Y70.66
X-40.91Y29.43
X-40.9Y34.57
X-40.55Y41.36
X-40.0Y52.497
X-40.0Y44.08
X-38.84Y70.71
X-37.297Y38.83
X-35.403Y44.84
X-34.558Y33.1
X-34.44Y47.69
X-10.22Y50.47
X-9.257Y47.71
X-7.744Y52.078
T3
X-72.15Y51.81
X-69.61Y51.81
X-68.46Y62.625
X-68.46Y60.085
X-67.07Y51.81
X-64.53Y51.81
X-61.99Y51.81
X-61.81Y44.07
X-59.27Y44.07
X-56.73Y44.07
X11.468Y49.21
X14.008Y49.21
X16.548Y49.21
T4
X-161.687Y80.328
X-159.306Y23.178
X-159.306Y61.278
X-159.306Y42.228
X-156.925Y23.178
X-155.337Y82.868
X-154.543Y42.228
X-152.956Y25.718
X-152.956Y63.818
X-152.956Y44.768
X-150.575Y25.718
X-148.193Y44.768
X-142.637Y80.328
X-137.875Y61.278
X-136.287Y82.868
X-135.493Y23.178
X-131.525Y63.818
X-130.731Y23.178
X-129.143Y25.718
X-128.35Y42.228
X-124.381Y25.718
X-123.587Y80.328
X-122.0Y44.768
X-118.825Y61.278
X-117.237Y82.868
X-112.475Y63.818
X-111.681Y23.178
X-109.3Y42.228
X-105.331Y25.718
X-104.537Y80.328
X-104.537Y23.178
X-102.95Y44.768
X-99.775Y61.278
X-98.187Y82.868
X-98.187Y25.718
X-93.425Y63.818
X-90.25Y42.228
X-85.487Y80.328
X-83.9Y44.768
X-80.725Y61.278
X-79.137Y82.868
X-74.375Y63.818
X-71.2Y42.228
X-71.2Y23.178
X-68.818Y23.178
X-66.437Y80.328
X-64.85Y44.768
X-64.85Y25.718
X-62.468Y25.718
X-61.675Y61.278
X-60.087Y82.868
X-55.325Y63.818
X-52.15Y42.228
X-47.387Y80.328
X-45.8Y44.768
X-42.625Y61.278
X-42.624Y23.178
X-41.037Y82.868
X-36.275Y63.818
X-36.274Y25.718
X-33.1Y42.228
X-28.337Y80.328
X-26.75Y44.768
X-23.575Y61.278
X-21.987Y82.868
X-21.273Y23.178
X-17.225Y63.818
X-14.923Y25.718
X-14.05Y42.228
X-14.049Y23.178
X-9.287Y80.328
X-7.7Y44.768
X-7.699Y25.718
X-4.525Y61.278
X-2.937Y82.868
X1.825Y63.818
X5.0Y42.228
X9.763Y80.328
X11.35Y44.768
X14.525Y61.278
X16.113Y82.868
X19.288Y23.178
X20.875Y63.818
X24.05Y42.228
X25.638Y25.718
X26.432Y23.178
X28.813Y80.328
X30.4Y44.768
X32.782Y25.718
X33.575Y61.278
X35.163Y82.868
X39.925Y63.818
X43.1Y42.228
X45.482Y23.178
X47.863Y80.328
X49.45Y44.768
X50.245Y23.178
X51.832Y25.718
X52.625Y61.278
X54.213Y82.868
X56.595Y25.718
X58.975Y63.818
X59.769Y42.228
X66.119Y44.768
X69.294Y42.228
X71.676Y23.178
X72.763Y70.83
X74.057Y23.178
X75.303Y64.48
X75.644Y44.768
X78.026Y25.718
X80.407Y25.718
T5
X-86.44Y13.653
X-76.915Y13.653
X-53.102Y13.653
X-48.34Y13.653
X-29.289Y13.653
X-29.289Y13.653
X-5.477Y13.653
X8.811Y13.653
X51.673Y32.703
X75.485Y32.703
X84.828Y80.196
X84.828Y56.384
T0
M30
