%TF.GenerationSoftware,KiCad,Pcbnew,(7.0.0-rc1-163-g06a2e950fd)*%
%TF.CreationDate,2023-02-21T11:22:40+01:00*%
%TF.ProjectId,pcb,7063622e-6b69-4636-9164-5f7063625858,rev?*%
%TF.SameCoordinates,Original*%
%TF.FileFunction,Soldermask,Bot*%
%TF.FilePolarity,Negative*%
%FSLAX46Y46*%
G04 Gerber Fmt 4.6, Leading zero omitted, Abs format (unit mm)*
G04 Created by KiCad (PCBNEW (7.0.0-rc1-163-g06a2e950fd)) date 2023-02-21 11:22:40*
%MOMM*%
%LPD*%
G01*
G04 APERTURE LIST*
G04 Aperture macros list*
%AMRoundRect*
0 Rectangle with rounded corners*
0 $1 Rounding radius*
0 $2 $3 $4 $5 $6 $7 $8 $9 X,Y pos of 4 corners*
0 Add a 4 corners polygon primitive as box body*
4,1,4,$2,$3,$4,$5,$6,$7,$8,$9,$2,$3,0*
0 Add four circle primitives for the rounded corners*
1,1,$1+$1,$2,$3*
1,1,$1+$1,$4,$5*
1,1,$1+$1,$6,$7*
1,1,$1+$1,$8,$9*
0 Add four rect primitives between the rounded corners*
20,1,$1+$1,$2,$3,$4,$5,0*
20,1,$1+$1,$4,$5,$6,$7,0*
20,1,$1+$1,$6,$7,$8,$9,0*
20,1,$1+$1,$8,$9,$2,$3,0*%
%AMRotRect*
0 Rectangle, with rotation*
0 The origin of the aperture is its center*
0 $1 length*
0 $2 width*
0 $3 Rotation angle, in degrees counterclockwise*
0 Add horizontal line*
21,1,$1,$2,0,0,$3*%
G04 Aperture macros list end*
%ADD10C,1.750000*%
%ADD11C,3.987800*%
%ADD12C,2.300000*%
%ADD13C,3.048000*%
%ADD14C,4.000000*%
%ADD15R,1.700000X1.000000*%
%ADD16R,1.800000X1.200000*%
%ADD17R,1.550000X0.600000*%
%ADD18RotRect,0.900000X0.800000X285.000000*%
%ADD19RoundRect,0.250000X0.475000X-0.250000X0.475000X0.250000X-0.475000X0.250000X-0.475000X-0.250000X0*%
%ADD20RoundRect,0.250000X-0.512652X-0.159099X-0.159099X-0.512652X0.512652X0.159099X0.159099X0.512652X0*%
%ADD21RotRect,0.900000X0.800000X255.000000*%
%ADD22R,1.700000X1.700000*%
%ADD23O,1.700000X1.700000*%
%ADD24RoundRect,0.250000X-0.475000X0.250000X-0.475000X-0.250000X0.475000X-0.250000X0.475000X0.250000X0*%
%ADD25RoundRect,0.250000X-0.450000X0.262500X-0.450000X-0.262500X0.450000X-0.262500X0.450000X0.262500X0*%
%ADD26R,0.800000X0.900000*%
%ADD27RotRect,1.400000X1.200000X225.000000*%
%ADD28RoundRect,0.050000X-0.238649X-0.309359X0.309359X0.238649X0.238649X0.309359X-0.309359X-0.238649X0*%
%ADD29RoundRect,0.050000X0.238649X-0.309359X0.309359X-0.238649X-0.238649X0.309359X-0.309359X0.238649X0*%
%ADD30RoundRect,0.144000X0.000000X-2.059095X2.059095X0.000000X0.000000X2.059095X-2.059095X0.000000X0*%
%ADD31RoundRect,0.250000X-0.132583X0.503814X-0.503814X0.132583X0.132583X-0.503814X0.503814X-0.132583X0*%
%ADD32RoundRect,0.250000X0.503814X0.132583X0.132583X0.503814X-0.503814X-0.132583X-0.132583X-0.503814X0*%
%ADD33RoundRect,0.250000X0.450000X-0.262500X0.450000X0.262500X-0.450000X0.262500X-0.450000X-0.262500X0*%
%ADD34RoundRect,0.150000X-0.150000X0.650000X-0.150000X-0.650000X0.150000X-0.650000X0.150000X0.650000X0*%
%ADD35RoundRect,0.250000X0.512652X0.159099X0.159099X0.512652X-0.512652X-0.159099X-0.159099X-0.512652X0*%
G04 APERTURE END LIST*
D10*
%TO.C,SW10*%
X-129619748Y39687696D03*
D11*
X-124539748Y39687696D03*
D10*
X-119459748Y39687696D03*
D12*
X-128349748Y42227696D03*
X-121999748Y44767696D03*
%TD*%
D10*
%TO.C,SW48*%
X41830252Y39687600D03*
D11*
X46910252Y39687600D03*
D10*
X51990252Y39687600D03*
D12*
X43100252Y42227600D03*
X49450252Y44767600D03*
%TD*%
D10*
%TO.C,SW49*%
X25161964Y20637552D03*
D11*
X30241964Y20637552D03*
D10*
X35321964Y20637552D03*
D12*
X26431964Y23177552D03*
X32781964Y25717552D03*
%TD*%
D10*
%TO.C,SW41*%
X8492752Y77787696D03*
D11*
X13572752Y77787696D03*
D10*
X18652752Y77787696D03*
D12*
X9762752Y80327696D03*
X16112752Y82867696D03*
%TD*%
D10*
%TO.C,SW25*%
X-22542544Y20637552D03*
D11*
X-17462544Y20637552D03*
D10*
X-12382544Y20637552D03*
D12*
X-21272544Y23177552D03*
X-14922544Y25717552D03*
%TD*%
D10*
%TO.C,SW57*%
X70405828Y20637552D03*
D11*
X75485828Y20637552D03*
D10*
X80565828Y20637552D03*
D12*
X71675828Y23177552D03*
X78025828Y25717552D03*
%TD*%
D10*
%TO.C,SW8*%
X-143907248Y77787696D03*
D11*
X-138827248Y77787696D03*
D10*
X-133747248Y77787696D03*
D12*
X-142637248Y80327696D03*
X-136287248Y82867696D03*
%TD*%
D10*
%TO.C,SW60*%
X72787084Y20637552D03*
D11*
X77867084Y20637552D03*
D10*
X82947084Y20637552D03*
D12*
X74057084Y23177552D03*
X80407084Y25717552D03*
%TD*%
D10*
%TO.C,SW55*%
X48974524Y20637552D03*
D11*
X54054524Y20637552D03*
D10*
X59134524Y20637552D03*
D12*
X50244524Y23177552D03*
X56594524Y25717552D03*
%TD*%
D10*
%TO.C,SW59*%
X68024002Y39687696D03*
D11*
X73104002Y39687696D03*
D10*
X78184002Y39687696D03*
D12*
X69294002Y42227696D03*
X75644002Y44767696D03*
%TD*%
D10*
%TO.C,SW15*%
X-110569748Y39687696D03*
D11*
X-105489748Y39687696D03*
D10*
X-100409748Y39687696D03*
D12*
X-109299748Y42227696D03*
X-102949748Y44767696D03*
%TD*%
D10*
%TO.C,SW36*%
X-24844748Y58737696D03*
D11*
X-19764748Y58737696D03*
D10*
X-14684748Y58737696D03*
D12*
X-23574748Y61277696D03*
X-17224748Y63817696D03*
%TD*%
D10*
%TO.C,SW33*%
X-34369748Y39687600D03*
D11*
X-29289748Y39687600D03*
D10*
X-24209748Y39687600D03*
D12*
X-33099748Y42227600D03*
X-26749748Y44767600D03*
%TD*%
D10*
%TO.C,SW6*%
X-160576004Y20637552D03*
D11*
X-155496004Y20637552D03*
D10*
X-150416004Y20637552D03*
D12*
X-159306004Y23177552D03*
X-152956004Y25717552D03*
%TD*%
D10*
%TO.C,SW31*%
X-48657248Y77787696D03*
D11*
X-43577248Y77787696D03*
D10*
X-38497248Y77787696D03*
D12*
X-47387248Y80327696D03*
X-41037248Y82867696D03*
%TD*%
D10*
%TO.C,SW21*%
X-72469532Y20637552D03*
D11*
X-67389532Y20637552D03*
D10*
X-62309532Y20637552D03*
D12*
X-71199532Y23177552D03*
X-64849532Y25717552D03*
%TD*%
D10*
%TO.C,SW7*%
X-132000932Y20637552D03*
D11*
X-126920932Y20637552D03*
D10*
X-121840932Y20637552D03*
D12*
X-130730932Y23177552D03*
X-124380932Y25717552D03*
%TD*%
D13*
%TO.C,S5*%
X8810540Y13652552D03*
D11*
X8810540Y28892552D03*
D13*
X-86439460Y13652552D03*
D11*
X-86439460Y28892552D03*
%TD*%
D10*
%TO.C,SW13*%
X-124857248Y77787696D03*
D11*
X-119777248Y77787696D03*
D10*
X-114697248Y77787696D03*
D12*
X-123587248Y80327696D03*
X-117237248Y82867696D03*
%TD*%
D10*
%TO.C,SW5*%
X-160575998Y39687696D03*
D11*
X-155495998Y39687696D03*
D10*
X-150415998Y39687696D03*
D12*
X-159305998Y42227696D03*
X-152955998Y44767696D03*
%TD*%
D10*
%TO.C,SW16*%
X-112950884Y20637552D03*
D11*
X-107870884Y20637552D03*
D10*
X-102790884Y20637552D03*
D12*
X-111680884Y23177552D03*
X-105330884Y25717552D03*
%TD*%
D10*
%TO.C,SW24*%
X-72469748Y39687600D03*
D11*
X-67389748Y39687600D03*
D10*
X-62309748Y39687600D03*
D12*
X-71199748Y42227600D03*
X-64849748Y44767600D03*
%TD*%
D10*
%TO.C,SW23*%
X-81994748Y58737696D03*
D11*
X-76914748Y58737696D03*
D10*
X-71834748Y58737696D03*
D12*
X-80724748Y61277696D03*
X-74374748Y63817696D03*
%TD*%
D10*
%TO.C,SW46*%
X27542752Y77787696D03*
D11*
X32622752Y77787696D03*
D10*
X37702752Y77787696D03*
D12*
X28812752Y80327696D03*
X35162752Y82867696D03*
%TD*%
D10*
%TO.C,SW26*%
X-67707248Y77787696D03*
D11*
X-62627248Y77787696D03*
D10*
X-57547248Y77787696D03*
D12*
X-66437248Y80327696D03*
X-60087248Y82867696D03*
%TD*%
D14*
%TO.C,S8*%
X-5476906Y13652552D03*
D11*
X-5476906Y28892552D03*
D14*
X-29289406Y13652552D03*
D11*
X-29289406Y28892552D03*
%TD*%
D10*
%TO.C,SW29*%
X-15319388Y20637552D03*
D11*
X-10239388Y20637552D03*
D10*
X-5159388Y20637552D03*
D12*
X-14049388Y23177552D03*
X-7699388Y25717552D03*
%TD*%
D10*
%TO.C,SW43*%
X22780252Y39687696D03*
D11*
X27860252Y39687696D03*
D10*
X32940252Y39687696D03*
D12*
X24050252Y42227696D03*
X30400252Y44767696D03*
%TD*%
D10*
%TO.C,SW37*%
X-15319748Y39687696D03*
D11*
X-10239748Y39687696D03*
D10*
X-5159748Y39687696D03*
D12*
X-14049748Y42227696D03*
X-7699748Y44767696D03*
%TD*%
D10*
%TO.C,SW50*%
X44212012Y20637552D03*
D11*
X49292012Y20637552D03*
D10*
X54372012Y20637552D03*
D12*
X45482012Y23177552D03*
X51832012Y25717552D03*
%TD*%
D10*
%TO.C,SW2*%
X-158194748Y20637552D03*
D11*
X-153114748Y20637552D03*
D10*
X-148034748Y20637552D03*
D12*
X-156924748Y23177552D03*
X-150574748Y25717552D03*
%TD*%
D10*
%TO.C,SW47*%
X32305252Y58737696D03*
D11*
X37385252Y58737696D03*
D10*
X42465252Y58737696D03*
D12*
X33575252Y61277696D03*
X39925252Y63817696D03*
%TD*%
D10*
%TO.C,SW35*%
X-29607248Y77787696D03*
D11*
X-24527248Y77787696D03*
D10*
X-19447248Y77787696D03*
D12*
X-28337248Y80327696D03*
X-21987248Y82867696D03*
%TD*%
D14*
%TO.C,S4*%
X-53102026Y13652552D03*
D11*
X-53102026Y28892552D03*
D14*
X-76914526Y13652552D03*
D11*
X-76914526Y28892552D03*
%TD*%
D10*
%TO.C,SW42*%
X13255252Y58737696D03*
D11*
X18335252Y58737696D03*
D10*
X23415252Y58737696D03*
D12*
X14525252Y61277696D03*
X20875252Y63817696D03*
%TD*%
D10*
%TO.C,SW5_1*%
X-155813498Y39687696D03*
D11*
X-150733498Y39687696D03*
D10*
X-145653498Y39687696D03*
D12*
X-154543498Y42227696D03*
X-148193498Y44767696D03*
%TD*%
D14*
%TO.C,REF\u002A\u002A*%
X75485252Y32702696D03*
D11*
X75485252Y47942696D03*
D14*
X51672752Y32702696D03*
D11*
X51672752Y47942696D03*
%TD*%
D10*
%TO.C,SW32*%
X-43894748Y58737696D03*
D11*
X-38814748Y58737696D03*
D10*
X-33734748Y58737696D03*
D12*
X-42624748Y61277696D03*
X-36274748Y63817696D03*
%TD*%
D10*
%TO.C,SW19*%
X-101044748Y58737696D03*
D11*
X-95964748Y58737696D03*
D10*
X-90884748Y58737696D03*
D12*
X-99774748Y61277696D03*
X-93424748Y63817696D03*
%TD*%
D10*
%TO.C,SW4*%
X-160575998Y58737696D03*
D11*
X-155495998Y58737696D03*
D10*
X-150415998Y58737696D03*
D12*
X-159305998Y61277696D03*
X-152955998Y63817696D03*
%TD*%
D10*
%TO.C,SW40*%
X3730252Y39687696D03*
D11*
X8810252Y39687696D03*
D10*
X13890252Y39687696D03*
D12*
X5000252Y42227696D03*
X11350252Y44767696D03*
%TD*%
D10*
%TO.C,SW9*%
X-139144748Y58737648D03*
D11*
X-134064748Y58737648D03*
D10*
X-128984748Y58737648D03*
D12*
X-137874748Y61277648D03*
X-131524748Y63817648D03*
%TD*%
D10*
%TO.C,SW52*%
X46592752Y77787696D03*
D11*
X51672752Y77787696D03*
D10*
X56752752Y77787696D03*
D12*
X47862752Y80327696D03*
X54212752Y82867696D03*
%TD*%
D14*
%TO.C,S7*%
X8810612Y13652552D03*
D11*
X8810612Y28892552D03*
D14*
X-29289388Y13652552D03*
D11*
X-29289388Y28892552D03*
%TD*%
D10*
%TO.C,SW12*%
X-105807116Y20637552D03*
D11*
X-100727116Y20637552D03*
D10*
X-95647116Y20637552D03*
D12*
X-104537116Y23177552D03*
X-98187116Y25717552D03*
%TD*%
D13*
%TO.C,S6*%
X13573046Y13652552D03*
D11*
X13573046Y28892552D03*
D13*
X-86439454Y13652552D03*
D11*
X-86439454Y28892552D03*
%TD*%
D10*
%TO.C,SW61*%
X58499002Y39687696D03*
D11*
X63579002Y39687696D03*
D10*
X68659002Y39687696D03*
D12*
X59769002Y42227696D03*
X66119002Y44767696D03*
%TD*%
D10*
%TO.C,SW34*%
X-43894460Y20637552D03*
D11*
X-38814460Y20637552D03*
D10*
X-33734460Y20637552D03*
D12*
X-42624460Y23177552D03*
X-36274460Y25717552D03*
%TD*%
D10*
%TO.C,SW39*%
X-5794748Y58737648D03*
D11*
X-714748Y58737648D03*
D10*
X4365252Y58737648D03*
D12*
X-4524748Y61277648D03*
X1825252Y63817648D03*
%TD*%
D10*
%TO.C,SW53*%
X51355252Y58737648D03*
D11*
X56435252Y58737648D03*
D10*
X61515252Y58737648D03*
D12*
X52625252Y61277648D03*
X58975252Y63817648D03*
%TD*%
D10*
%TO.C,SW27*%
X-62944748Y58737648D03*
D11*
X-57864748Y58737648D03*
D10*
X-52784748Y58737648D03*
D12*
X-61674748Y61277648D03*
X-55324748Y63817648D03*
%TD*%
D14*
%TO.C,S1*%
X84828302Y80196250D03*
D11*
X69588302Y80196250D03*
D14*
X84828302Y56383750D03*
D11*
X69588302Y56383750D03*
%TD*%
D10*
%TO.C,SW22*%
X-86757248Y77787696D03*
D11*
X-81677248Y77787696D03*
D10*
X-76597248Y77787696D03*
D12*
X-85487248Y80327696D03*
X-79137248Y82867696D03*
%TD*%
D10*
%TO.C,SW20*%
X-91519748Y39687696D03*
D11*
X-86439748Y39687696D03*
D10*
X-81359748Y39687696D03*
D12*
X-90249748Y42227696D03*
X-83899748Y44767696D03*
%TD*%
D10*
%TO.C,SW38*%
X-10557248Y77787696D03*
D11*
X-5477248Y77787696D03*
D10*
X-397248Y77787696D03*
D12*
X-9287248Y80327696D03*
X-2937248Y82867696D03*
%TD*%
D10*
%TO.C,SW44*%
X18018196Y20637552D03*
D11*
X23098196Y20637552D03*
D10*
X28178196Y20637552D03*
D12*
X19288196Y23177552D03*
X25638196Y25717552D03*
%TD*%
D10*
%TO.C,SW28*%
X-53419748Y39687600D03*
D11*
X-48339748Y39687600D03*
D10*
X-43259748Y39687600D03*
D12*
X-52149748Y42227600D03*
X-45799748Y44767600D03*
%TD*%
D10*
%TO.C,SW17*%
X-70088276Y20637552D03*
D11*
X-65008276Y20637552D03*
D10*
X-59928276Y20637552D03*
D12*
X-68818276Y23177552D03*
X-62468276Y25717552D03*
%TD*%
D10*
%TO.C,SW18*%
X-105807248Y77787696D03*
D11*
X-100727248Y77787696D03*
D10*
X-95647248Y77787696D03*
D12*
X-104537248Y80327696D03*
X-98187248Y82867696D03*
%TD*%
D10*
%TO.C,SW14*%
X-120094748Y58737648D03*
D11*
X-115014748Y58737648D03*
D10*
X-109934748Y58737648D03*
D12*
X-118824748Y61277648D03*
X-112474748Y63817648D03*
%TD*%
D10*
%TO.C,SW3*%
X-162957248Y77787696D03*
D11*
X-157877248Y77787696D03*
D10*
X-152797248Y77787696D03*
D12*
X-161687248Y80327696D03*
X-155337248Y82867696D03*
%TD*%
D14*
%TO.C,S3*%
X-48339532Y13652552D03*
D11*
X-48339532Y28892552D03*
D14*
X-86439532Y13652552D03*
D11*
X-86439532Y28892552D03*
%TD*%
D10*
%TO.C,SW11*%
X-136763444Y20637552D03*
D11*
X-131683444Y20637552D03*
D10*
X-126603444Y20637552D03*
D12*
X-135493444Y23177552D03*
X-129143444Y25717552D03*
%TD*%
D10*
%TO.C,SW58*%
X77843302Y63210000D03*
D11*
X77843302Y68290000D03*
D10*
X77843302Y73370000D03*
D12*
X75303302Y64480000D03*
X72763302Y70830000D03*
%TD*%
D15*
%TO.C,SW9999*%
X-85159999Y50439999D03*
X-78859999Y50439999D03*
X-85159999Y54239999D03*
X-78859999Y54239999D03*
%TD*%
D16*
%TO.C,J3*%
X-4127247Y52009999D03*
X-4127247Y46409999D03*
D17*
X-8002247Y50709999D03*
X-8002247Y49709999D03*
X-8002247Y48709999D03*
X-8002247Y47709999D03*
%TD*%
D18*
%TO.C,D2*%
X-46863696Y73385973D03*
X-45028437Y73877729D03*
X-45428428Y71699999D03*
%TD*%
D19*
%TO.C,C5*%
X-42927248Y32830000D03*
X-42927248Y34730000D03*
%TD*%
D18*
%TO.C,D8*%
X-71703696Y33640047D03*
X-69868437Y34131803D03*
X-70268428Y31954073D03*
%TD*%
D20*
%TO.C,C10*%
X-33735185Y51434402D03*
X-32391683Y50090900D03*
%TD*%
D21*
%TO.C,D18*%
X-18336057Y36891803D03*
X-16500798Y36400047D03*
X-17936066Y34714073D03*
%TD*%
D22*
%TO.C,J2*%
X11467751Y49209999D03*
D23*
X14007751Y49209999D03*
X16547751Y49209999D03*
%TD*%
D21*
%TO.C,D15*%
X-28053687Y72027681D03*
X-26218428Y71535925D03*
X-27653696Y69849951D03*
%TD*%
D19*
%TO.C,C7*%
X-28093434Y47552651D03*
X-28093434Y49452651D03*
%TD*%
D24*
%TO.C,C11*%
X-24043434Y52942651D03*
X-24043434Y51042651D03*
%TD*%
D25*
%TO.C,R8*%
X-96170000Y54572500D03*
X-96170000Y52747500D03*
%TD*%
D21*
%TO.C,D22*%
X-21796057Y37831803D03*
X-19960798Y37340047D03*
X-21396066Y35654073D03*
%TD*%
D24*
%TO.C,C9*%
X-22013434Y52942651D03*
X-22013434Y51042651D03*
%TD*%
D26*
%TO.C,U4*%
X-13039999Y50999999D03*
X-14939999Y50999999D03*
X-13989999Y52999999D03*
%TD*%
D24*
%TO.C,C17*%
X-19980000Y52942651D03*
X-19980000Y51042651D03*
%TD*%
D21*
%TO.C,D6*%
X-34967238Y73877729D03*
X-33131979Y73385973D03*
X-34567247Y71699999D03*
%TD*%
D19*
%TO.C,C8*%
X-30123434Y47552651D03*
X-30123434Y49452651D03*
%TD*%
D27*
%TO.C,Y0*%
X-48392075Y52371731D03*
X-49947710Y50816096D03*
X-51149791Y52018177D03*
X-49594156Y53573812D03*
%TD*%
D28*
%TO.C,U3*%
X-40579450Y44940843D03*
X-40862293Y45223686D03*
X-41145135Y45506528D03*
X-41427978Y45789371D03*
X-41710821Y46072214D03*
X-41993663Y46355056D03*
X-42276506Y46637899D03*
X-42559349Y46920742D03*
X-42842192Y47203585D03*
X-43125034Y47486427D03*
X-43407877Y47769270D03*
X-43690720Y48052113D03*
X-43973562Y48334955D03*
X-44256405Y48617798D03*
D29*
X-44256405Y49802202D03*
X-43973562Y50085045D03*
X-43690720Y50367887D03*
X-43407877Y50650730D03*
X-43125034Y50933573D03*
X-42842192Y51216415D03*
X-42559349Y51499258D03*
X-42276506Y51782101D03*
X-41993663Y52064944D03*
X-41710821Y52347786D03*
X-41427978Y52630629D03*
X-41145135Y52913472D03*
X-40862293Y53196314D03*
X-40579450Y53479157D03*
D28*
X-39395046Y53479157D03*
X-39112203Y53196314D03*
X-38829361Y52913472D03*
X-38546518Y52630629D03*
X-38263675Y52347786D03*
X-37980833Y52064944D03*
X-37697990Y51782101D03*
X-37415147Y51499258D03*
X-37132304Y51216415D03*
X-36849462Y50933573D03*
X-36566619Y50650730D03*
X-36283776Y50367887D03*
X-36000934Y50085045D03*
X-35718091Y49802202D03*
D29*
X-35718091Y48617798D03*
X-36000934Y48334955D03*
X-36283776Y48052113D03*
X-36566619Y47769270D03*
X-36849462Y47486427D03*
X-37132304Y47203585D03*
X-37415147Y46920742D03*
X-37697990Y46637899D03*
X-37980833Y46355056D03*
X-38263675Y46072214D03*
X-38546518Y45789371D03*
X-38829361Y45506528D03*
X-39112203Y45223686D03*
X-39395046Y44940843D03*
D30*
X-39987248Y49210000D03*
%TD*%
D21*
%TO.C,D14*%
X-24607238Y71107729D03*
X-22771979Y70615973D03*
X-24207247Y68929999D03*
%TD*%
D18*
%TO.C,D9*%
X-53733696Y71535925D03*
X-51898437Y72027681D03*
X-52298428Y69849951D03*
%TD*%
D26*
%TO.C,D11*%
X-40917247Y68709999D03*
X-42817247Y68709999D03*
X-41867247Y70709999D03*
%TD*%
D31*
%TO.C,R3*%
X-19433434Y47342651D03*
X-20723904Y46052181D03*
%TD*%
D19*
%TO.C,C6*%
X-26073434Y47552651D03*
X-26073434Y49452651D03*
%TD*%
D21*
%TO.C,D23*%
X-11447247Y35029999D03*
X-9611988Y34538243D03*
X-11047256Y32852269D03*
%TD*%
D20*
%TO.C,C2*%
X-52668999Y50641751D03*
X-51325497Y49298249D03*
%TD*%
D32*
%TO.C,R5*%
X-45482013Y55214765D03*
X-46772483Y56505235D03*
%TD*%
D22*
%TO.C,J4*%
X-56729999Y44069999D03*
D23*
X-59269999Y44069999D03*
X-61809999Y44069999D03*
%TD*%
D33*
%TO.C,R1*%
X-76720000Y52747500D03*
X-76720000Y54572500D03*
%TD*%
D31*
%TO.C,R4*%
X-20813434Y48732651D03*
X-22103904Y47442181D03*
%TD*%
D18*
%TO.C,D1*%
X-50283696Y72464169D03*
X-48448437Y72955925D03*
X-48848428Y70778195D03*
%TD*%
D22*
%TO.C,J1*%
X-61989999Y51809999D03*
D23*
X-64529999Y51809999D03*
X-67069999Y51809999D03*
X-69609999Y51809999D03*
X-72149999Y51809999D03*
%TD*%
D21*
%TO.C,D17*%
X-14896057Y35961803D03*
X-13060798Y35470047D03*
X-14496066Y33784073D03*
%TD*%
D18*
%TO.C,D10*%
X-57173696Y70615973D03*
X-55338437Y71107729D03*
X-55738428Y68929999D03*
%TD*%
D24*
%TO.C,C13*%
X-28093434Y52942651D03*
X-28093434Y51042651D03*
%TD*%
%TO.C,C1*%
X-11180000Y52950000D03*
X-11180000Y51050000D03*
%TD*%
D21*
%TO.C,D5*%
X-38387238Y74807729D03*
X-36551979Y74315973D03*
X-37987247Y72629999D03*
%TD*%
D26*
%TO.C,D12*%
X-39039999Y27479999D03*
X-40939999Y27479999D03*
X-39989999Y29479999D03*
%TD*%
D34*
%TO.C,U2*%
X-40912248Y40330000D03*
X-39642248Y40330000D03*
X-38372248Y40330000D03*
X-37102248Y40330000D03*
X-37102248Y33130000D03*
X-38372248Y33130000D03*
X-39642248Y33130000D03*
X-40912248Y33130000D03*
%TD*%
D18*
%TO.C,D3*%
X-43433696Y74315973D03*
X-41598437Y74807729D03*
X-41998428Y72629999D03*
%TD*%
D24*
%TO.C,C12*%
X-26073434Y52942651D03*
X-26073434Y51042651D03*
%TD*%
D18*
%TO.C,D20*%
X-61352515Y36411899D03*
X-59517256Y36903655D03*
X-59917247Y34725925D03*
%TD*%
D21*
%TO.C,D16*%
X-8012506Y34101755D03*
X-6177247Y33609999D03*
X-7612515Y31924025D03*
%TD*%
D24*
%TO.C,C4*%
X-17960000Y52942651D03*
X-17960000Y51042651D03*
%TD*%
%TO.C,C14*%
X-30123434Y52942651D03*
X-30123434Y51042651D03*
%TD*%
D22*
%TO.C,J5*%
X-68459999Y62624999D03*
D23*
X-68459999Y60084999D03*
%TD*%
D21*
%TO.C,D7*%
X-31518428Y72955925D03*
X-29683169Y72464169D03*
X-31118437Y70778195D03*
%TD*%
D15*
%TO.C,SW9998*%
X-94049999Y50439999D03*
X-87749999Y50439999D03*
X-94049999Y54239999D03*
X-87749999Y54239999D03*
%TD*%
D18*
%TO.C,D21*%
X-57913696Y37340047D03*
X-56078437Y37831803D03*
X-56478428Y35654073D03*
%TD*%
%TO.C,D19*%
X-64802515Y35485973D03*
X-62967256Y35977729D03*
X-63367247Y33799999D03*
%TD*%
D26*
%TO.C,D13*%
X-37157247Y68709999D03*
X-39057247Y68709999D03*
X-38107247Y70709999D03*
%TD*%
D18*
%TO.C,D4*%
X-68252506Y34558243D03*
X-66417247Y35049999D03*
X-66817238Y32872269D03*
%TD*%
D35*
%TO.C,C3*%
X-46875497Y53748249D03*
X-48218999Y55091751D03*
%TD*%
M02*
