M48
; DRILL file {KiCad (7.0.0-rc1-163-g06a2e950fd)} date Tue 21 Feb 2023 11:22:42 CET
; FORMAT={-:-/ absolute / metric / decimal}
; #@! TF.CreationDate,2023-02-21T11:22:42+01:00
; #@! TF.GenerationSoftware,Kicad,Pcbnew,(7.0.0-rc1-163-g06a2e950fd)
; #@! TF.FileFunction,NonPlated,1,2,NPTH
FMAT,2
METRIC
; #@! TA.AperFunction,NonPlated,NPTH,ComponentDrill
T1C1.750
; #@! TA.AperFunction,NonPlated,NPTH,ComponentDrill
T2C3.048
; #@! TA.AperFunction,NonPlated,NPTH,ComponentDrill
T3C3.988
%
G90
G05
T1
X-162.957Y77.788
X-160.576Y20.638
X-160.576Y58.738
X-160.576Y39.688
X-158.195Y20.638
X-155.813Y39.688
X-152.797Y77.788
X-150.416Y20.638
X-150.416Y58.738
X-150.416Y39.688
X-148.035Y20.638
X-145.653Y39.688
X-143.907Y77.788
X-139.145Y58.738
X-136.763Y20.638
X-133.747Y77.788
X-132.001Y20.638
X-129.62Y39.688
X-128.985Y58.738
X-126.603Y20.638
X-124.857Y77.788
X-121.841Y20.638
X-120.095Y58.738
X-119.46Y39.688
X-114.697Y77.788
X-112.951Y20.638
X-110.57Y39.688
X-109.935Y58.738
X-105.807Y77.788
X-105.807Y20.638
X-102.791Y20.638
X-101.045Y58.738
X-100.41Y39.688
X-95.647Y77.788
X-95.647Y20.638
X-91.52Y39.688
X-90.885Y58.738
X-86.757Y77.788
X-81.995Y58.738
X-81.36Y39.688
X-76.597Y77.788
X-72.47Y39.688
X-72.47Y20.638
X-71.835Y58.738
X-70.088Y20.638
X-67.707Y77.788
X-62.945Y58.738
X-62.31Y39.688
X-62.31Y20.638
X-59.928Y20.638
X-57.547Y77.788
X-53.42Y39.688
X-52.785Y58.738
X-48.657Y77.788
X-43.895Y58.738
X-43.894Y20.638
X-43.26Y39.688
X-38.497Y77.788
X-34.37Y39.688
X-33.735Y58.738
X-33.734Y20.638
X-29.607Y77.788
X-24.845Y58.738
X-24.21Y39.688
X-22.543Y20.638
X-19.447Y77.788
X-15.32Y39.688
X-15.319Y20.638
X-14.685Y58.738
X-12.383Y20.638
X-10.557Y77.788
X-5.795Y58.738
X-5.16Y39.688
X-5.159Y20.638
X-0.397Y77.788
X3.73Y39.688
X4.365Y58.738
X8.493Y77.788
X13.255Y58.738
X13.89Y39.688
X18.018Y20.638
X18.653Y77.788
X22.78Y39.688
X23.415Y58.738
X25.162Y20.638
X27.543Y77.788
X28.178Y20.638
X32.305Y58.738
X32.94Y39.688
X35.322Y20.638
X37.703Y77.788
X41.83Y39.688
X42.465Y58.738
X44.212Y20.638
X46.593Y77.788
X48.975Y20.638
X51.355Y58.738
X51.99Y39.688
X54.372Y20.638
X56.753Y77.788
X58.499Y39.688
X59.135Y20.638
X61.515Y58.738
X68.024Y39.688
X68.659Y39.688
X70.406Y20.638
X72.787Y20.638
X77.843Y73.37
X77.843Y63.21
X78.184Y39.688
X80.566Y20.638
X82.947Y20.638
T2
X-86.439Y13.653
X-86.439Y13.653
X8.811Y13.653
X13.573Y13.653
T3
X-157.877Y77.788
X-155.496Y20.638
X-155.496Y58.738
X-155.496Y39.688
X-153.115Y20.638
X-150.733Y39.688
X-138.827Y77.788
X-134.065Y58.738
X-131.683Y20.638
X-126.921Y20.638
X-124.54Y39.688
X-119.777Y77.788
X-115.015Y58.738
X-107.871Y20.638
X-105.49Y39.688
X-100.727Y77.788
X-100.727Y20.638
X-95.965Y58.738
X-86.44Y39.688
X-86.44Y28.893
X-86.439Y28.893
X-86.439Y28.893
X-81.677Y77.788
X-76.915Y58.738
X-76.915Y28.893
X-67.39Y39.688
X-67.39Y20.638
X-65.008Y20.638
X-62.627Y77.788
X-57.865Y58.738
X-53.102Y28.893
X-48.34Y39.688
X-48.34Y28.893
X-43.577Y77.788
X-38.815Y58.738
X-38.814Y20.638
X-29.29Y39.688
X-29.289Y28.893
X-29.289Y28.893
X-24.527Y77.788
X-19.765Y58.738
X-17.463Y20.638
X-10.24Y39.688
X-10.239Y20.638
X-5.477Y77.788
X-5.477Y28.893
X-0.715Y58.738
X8.81Y39.688
X8.811Y28.893
X8.811Y28.893
X13.573Y77.788
X13.573Y28.893
X18.335Y58.738
X23.098Y20.638
X27.86Y39.688
X30.242Y20.638
X32.623Y77.788
X37.385Y58.738
X46.91Y39.688
X49.292Y20.638
X51.673Y77.788
X51.673Y47.943
X54.055Y20.638
X56.435Y58.738
X63.579Y39.688
X69.588Y80.196
X69.588Y56.384
X73.104Y39.688
X75.485Y47.943
X75.486Y20.638
X77.843Y68.29
X77.867Y20.638
T0
M30
